#!OML:ASF E:\Steps\Project 1\Capture day 1\Session 2\Subject.ASF
:FULLY-SPECIFIED
:DEGREES
820
root 9.01051 21.9215 -17.066 -152.395 3.36159 178.295
lowerback -20.5143 0.204481 -7.06446
upperback 1.73646 2.28694 -0.969382
thorax 13.3428 0.623556 3.66343
lowerneck 1.75007 -2.73852 -0.113694
upperneck 12.0064 -5.34332 6.75183
head 3.83638 -2.76576 2.09537
rclavicle 1.31198e-014 1.47101e-014
rhumerus -37.1186 -11.1291 -80.2931
rradius 48.6492
rwrist -9.21583
rhand -4.54034 -54.4564
rfingers 7.12502
rthumb 21.235 -83.3132
lclavicle 1.31198e-014 1.47101e-014
lhumerus -30.3585 -0.20133 80.3179
lradius 29.2155
lwrist 1.2568
lhand -20.627 -14.1005
lfingers 7.12502
lthumb 5.73445 15.8019
rfemur -25.1625 2.21662 17.4547
rtibia 31.299
rfoot 2.95824 -3.69835
rtoes -48.6
lfemur -55.2072 -7.32584 -18.667
ltibia 35.0463
lfoot -6.2607 2.03689
ltoes -22.17
821
root 8.99241 21.968 -17.1264 -152.452 3.59714 178.212
lowerback -20.3762 0.142236 -7.16926
upperback 1.7674 2.22178 -0.990099
thorax 13.3039 0.58788 3.67546
lowerneck 1.75303 -2.193 -0.0547639
upperneck 12.2548 -4.57402 6.31693
head 3.87147 -2.39568 1.96084
rclavicle 3.57812e-015 -8.34896e-015
rhumerus -37.1936 -10.85 -80.4242
rradius 48.7266
rwrist -9.63971
rhand -5.63555 -53.3716
rfingers 7.12502
rthumb 20.1827 -82.3431
lclavicle 3.57812e-015 -8.34896e-015
lhumerus -30.3132 -0.357816 80.274
lradius 29.5624
lwrist 1.33203
lhand -20.5077 -13.9085
lfingers 7.12502
lthumb 5.8497 15.9907
rfemur -26.5895 1.99777 17.3099
rtibia 34.4285
rfoot 2.3792 -3.87077
rtoes -47.1709
lfemur -54.2205 -7.32825 -18.9041
ltibia 33.9223
lfoot -6.12007 2.20027
ltoes -22.3636
822
root 8.97507 22.0082 -17.1823 -152.436 3.86897 178.123
lowerback -20.3237 0.0875357 -7.2665
upperback 1.67208 2.17425 -1.0234
thorax 13.1663 0.571626 3.6764
lowerneck 1.82853 -2.03952 -0.093054
upperneck 12.602 -4.41785 6.20919
head 3.972 -2.33424 1.93746
rclavicle 1.09332e-014 -4.17448e-015
rhumerus -37.4609 -10.676 -80.4582
rradius 48.8626
rwrist -9.71657
rhand -6.28203 -52.362
rfingers 7.12502
rthumb 19.5612 -81.3979
lclavicle 1.09332e-014 -4.17448e-015
lhumerus -30.6955 -0.483937 80.2483
lradius 30.1151
lwrist 1.48283
lhand -20.6113 -14.3239
lfingers 7.12502
lthumb 5.74962 15.5781
rfemur -28.2341 1.74751 17.1874
rtibia 37.8023
rfoot 1.96201 -4.16895
rtoes -46.1653
lfemur -53.3974 -7.27362 -19.1586
ltibia 32.8541
lfoot -5.91583 2.3895
ltoes -22.5803
823
root 8.9585 22.0447 -17.2388 -152.413 4.09273 178.177
lowerback -20.4015 0.064647 -7.2107
upperback 1.75477 2.13363 -0.998848
thorax 13.3134 0.545361 3.66284
lowerneck 1.64896 -2.33215 -0.119586
upperneck 12.4323 -4.78175 6.21585
head 3.96143 -2.50423 1.93077
rclavicle -6.4605e-015 -2.66371e-014
rhumerus -37.2786 -10.5375 -80.5232
rradius 48.847
rwrist -9.64747
rhand -6.03706 -52.6939
rfingers 7.12502
rthumb 19.7967 -81.7057
lclavicle -6.4605e-015 -2.66371e-014
lhumerus -30.8097 -0.42345 80.2785
lradius 30.6108
lwrist 1.44156
lhand -20.8622 -14.8285
lfingers 7.12502
lthumb 5.50737 15.0799
rfemur -29.7924 1.61831 17.2126
rtibia 41.0504
rfoot 0.928146 -4.2678
rtoes -46.4713
lfemur -52.6847 -7.1698 -19.2406
ltibia 31.9597
lfoot -5.75401 2.52079
ltoes -22.6501
824
root 8.94271 22.0775 -17.2971 -152.493 4.12809 178.402
lowerback -20.4654 -0.00654804 -6.94948
upperback 1.90297 1.96239 -0.90193
thorax 13.5464 0.463097 3.57366
lowerneck 1.61138 -2.18713 -0.330365
upperneck 12.3275 -4.58478 6.39764
head 3.93583 -2.40824 2.03623
rclavicle 3.47873e-015 -2.20651e-014
rhumerus -37.1001 -10.3191 -80.664
rradius 48.9476
rwrist -9.42951
rhand -5.74534 -53.5582
rfingers 7.12502
rthumb 20.0771 -82.5409
lclavicle 3.47873e-015 -2.20651e-014
lhumerus -30.758 -0.426597 80.23
lradius 30.9686
lwrist 1.48175
lhand -20.7272 -14.3444
lfingers 7.12502
lthumb 5.63773 15.5606
rfemur -31.1477 1.5561 17.4902
rtibia 44.1429
rfoot -0.36617 -4.33167
rtoes -46.7635
lfemur -51.9281 -7.09432 -19.1197
ltibia 31.2275
lfoot -5.65323 2.57915
ltoes -22.6438
825
root 8.92645 22.1164 -17.354 -152.654 4.47114 178.04
lowerback -20.4259 -0.146902 -7.32279
upperback 1.9854 1.8899 -1.0074
thorax 13.625 0.403876 3.64362
lowerneck 1.36507 -1.71116 -0.425096
upperneck 12.6092 -3.93119 6.16911
head 4.04993 -2.08927 1.99523
rclavicle 5.26779e-015 2.46493e-014
rhumerus -37.1602 -10.1803 -80.8051
rradius 49.141
rwrist -9.22848
rhand -6.25804 -52.9383
rfingers 7.12502
rthumb 19.5843 -81.9719
lclavicle 5.26779e-015 2.46493e-014
lhumerus -30.6238 -0.529982 80.0847
lradius 31.1246
lwrist 1.49949
lhand -20.4964 -13.9301
lfingers 7.12502
lthumb 5.8606 15.9688
rfemur -32.5923 1.48951 17.02
rtibia 47.2427
rfoot -1.89825 -4.28811
rtoes -48.0996
lfemur -50.9971 -7.15479 -19.6807
ltibia 30.3315
lfoot -5.58676 2.71427
ltoes -22.4396
826
root 8.90903 22.1472 -17.4049 -152.908 4.3876 178.217
lowerback -20.0526 -0.138727 -6.97986
upperback 2.03639 1.76726 -0.959705
thorax 13.4846 0.372242 3.4552
lowerneck 1.37617 -1.60149 -0.518594
upperneck 12.3731 -3.73736 6.18978
head 3.95756 -1.99159 2.02431
rclavicle -4.96962e-016 1.55052e-014
rhumerus -37.3473 -10.0901 -80.8469
rradius 49.2963
rwrist -9.30396
rhand -6.68152 -51.774
rfingers 7.12502
rthumb 19.1771 -80.8485
lclavicle -4.96962e-016 1.55052e-014
lhumerus -30.5584 -0.834859 80.0313
lradius 31.3252
lwrist 1.49506
lhand -20.5362 -14.0793
lfingers 7.12502
lthumb 5.82216 15.8207
rfemur -33.6849 1.41924 17.3097
rtibia 50.0379
rfoot -3.41391 -4.12237
rtoes -48.9279
lfemur -50.0808 -7.27922 -19.5507
ltibia 29.5465
lfoot -5.56268 2.83698
ltoes -22.173
827
root 8.89277 22.1778 -17.4585 -153.061 4.50242 178.044
lowerback -19.827 -0.220063 -7.06734
upperback 2.029 1.66279 -0.97534
thorax 13.3542 0.324526 3.45003
lowerneck 1.59074 -2.77835 -0.629898
upperneck 12.4412 -3.52771 5.9838
head 3.92922 -1.21304 2.02965
rclavicle 6.95746e-016 -1.59028e-014
rhumerus -37.5177 -9.91502 -80.8364
rradius 49.3974
rwrist -9.4644
rhand -6.14868 -51.9804
rfingers 7.12502
rthumb 19.6894 -81.0033
lclavicle 6.95746e-016 -1.59028e-014
lhumerus -30.6019 -0.913466 80.0424
lradius 31.5323
lwrist 1.39638
lhand -20.5926 -13.9285
lfingers 7.12502
lthumb 5.76769 15.973
rfemur -34.9085 1.35819 17.1279
rtibia 52.6534
rfoot -4.66222 -3.7754
rtoes -48.7192
lfemur -49.2374 -7.42813 -19.8564
ltibia 28.7289
lfoot -5.61778 2.95402
ltoes -22.4149
828
root 8.87793 22.209 -17.512 -153.283 4.68502 177.792
lowerback -19.635 -0.384105 -7.30107
upperback 2.04421 1.48903 -0.991004
thorax 13.2763 0.231947 3.50853
lowerneck 1.85823 -2.72867 -0.849485
upperneck 12.5607 -3.44823 6.14657
head 3.92863 -1.1691 2.13103
rclavicle 4.37326e-015 -6.75868e-015
rhumerus -37.5973 -9.69756 -80.89
rradius 49.4558
rwrist -9.39792
rhand -5.77798 -52.552
rfingers 7.12502
rthumb 20.0458 -81.5379
lclavicle 4.37326e-015 -6.75868e-015
lhumerus -30.5505 -0.727348 79.9798
lradius 31.493
lwrist 1.27071
lhand -20.6999 -13.7997
lfingers 7.12502
lthumb 5.66405 16.1046
rfemur -36.05 1.29849 16.8392
rtibia 55.0543
rfoot -5.80415 -3.35025
rtoes -48.6634
lfemur -48.3135 -7.54274 -20.2733
ltibia 27.9142
lfoot -5.55839 3.03864
ltoes -22.804
829
root 8.86347 22.2371 -17.5666 -153.455 4.66952 177.832
lowerback -19.5121 -0.470877 -7.16908
upperback 2.08198 1.32196 -0.947656
thorax 13.2677 0.160422 3.42954
lowerneck 1.74361 -2.53806 -0.875096
upperneck 12.1175 -3.21922 6.05589
head 3.77996 -1.09048 2.10307
rclavicle 6.85807e-015 -1.98785e-016
rhumerus -37.5797 -9.78006 -80.9193
rradius 49.4128
rwrist -9.10224
rhand -5.85201 -52.652
rfingers 7.12502
rthumb 19.9746 -81.6453
lclavicle 6.85807e-015 -1.98785e-016
lhumerus -30.5358 -0.707259 79.8834
lradius 31.5454
lwrist 1.19758
lhand -20.7597 -13.9446
lfingers 7.12502
lthumb 5.60638 15.9612
rfemur -37.189 1.21169 16.9664
rtibia 57.3878
rfoot -6.53414 -3.15489
rtoes -48.8215
lfemur -47.5098 -7.63437 -20.3203
ltibia 27.1952
lfoot -5.09366 3.12191
ltoes -22.1666
830
root 8.85239 22.2616 -17.6192 -153.482 4.50789 178.131
lowerback -19.4745 -0.485926 -6.76532
upperback 2.08255 1.17846 -0.838088
thorax 13.2631 0.11578 3.2793
lowerneck 2.04016 -2.64993 -0.79775
upperneck 12.5554 -3.34686 6.41966
head 3.89473 -1.10108 2.21977
rclavicle -7.55382e-015 3.39922e-014
rhumerus -37.6432 -9.9752 -80.8907
rradius 49.5158
rwrist -8.85991
rhand -5.65253 -53.0118
rfingers 7.12502
rthumb 20.1663 -81.9851
lclavicle -7.55382e-015 3.39922e-014
lhumerus -30.5002 -0.685286 79.7646
lradius 31.5518
lwrist 1.01392
lhand -20.6726 -14.0737
lfingers 7.12502
lthumb 5.69045 15.8299
rfemur -38.4759 1.24148 17.4284
rtibia 59.6087
rfoot -7.58326 -3.08144
rtoes -48.9997
lfemur -46.9578 -7.66542 -20.0073
ltibia 26.6011
lfoot -4.80751 3.19361
ltoes -21.2971
831
root 8.83727 22.2899 -17.6668 -153.422 4.53952 178.078
lowerback -19.4593 -0.570319 -6.73192
upperback 2.01425 1.05508 -0.8305
thorax 13.1878 0.0664724 3.23153
lowerneck 1.95836 -2.59376 -1.01609
upperneck 12.5112 -3.28509 6.43824
head 3.89791 -1.08613 2.26622
rclavicle 1.49089e-015 -4.01545e-014
rhumerus -37.9106 -9.96439 -80.8523
rradius 49.8706
rwrist -8.82908
rhand -5.52172 -53.5358
rfingers 7.12502
rthumb 20.2921 -82.4957
lclavicle 1.49089e-015 -4.01545e-014
lhumerus -30.2826 -0.626743 79.6967
lradius 31.2668
lwrist 0.855645
lhand -20.7368 -14.3889
lfingers 7.12502
lthumb 5.62844 15.5163
rfemur -39.8755 1.25188 17.4064
rtibia 61.5434
rfoot -8.73829 -3.2586
rtoes -46.524
lfemur -46.5241 -7.81931 -20.1087
ltibia 26.0511
lfoot -5.1309 3.29373
ltoes -21.8337
832
root 8.82565 22.3123 -17.7139 -153.512 4.47138 178.208
lowerback -19.5072 -0.655664 -6.54938
upperback 2.15885 0.88573 -0.73341
thorax 13.402 -0.0175934 3.18602
lowerneck 1.96406 -2.77553 -0.903699
upperneck 12.5234 -3.52957 6.35138
head 3.90684 -1.20722 2.2089
rclavicle -6.16232e-015 1.96797e-014
rhumerus -37.8418 -10.0233 -80.8062
rradius 49.9803
rwrist -8.86439
rhand -5.72665 -53.6807
rfingers 7.12502
rthumb 20.0951 -82.6615
lclavicle -6.16232e-015 1.96797e-014
lhumerus -29.877 -0.461307 79.6886
lradius 31.16
lwrist 0.709928
lhand -20.9883 -14.3529
lfingers 7.12502
lthumb 5.38564 15.5586
rfemur -40.9203 1.33138 17.647
rtibia 63.0598
rfoot -9.81421 -3.55305
rtoes -45.6336
lfemur -45.985 -7.92541 -20.0066
ltibia 25.5942
lfoot -5.39504 3.37398
ltoes -22.9834
